# AST/ASF file generated using VICON BodyLanguage
# -----------------------------------------------
:version 1.10
:name VICON
:units
  mass 1.0
  length 0.45
  angle deg
:documentation
   .ast/.asf automatically generated from VICON data using
   VICON BodyBuilder and BodyLanguage model FoxedUp or BRILLIANT.MOD
:root
   order TX TY TZ RX RY RZ
   axis XYZ
   position 0 0 0  
   orientation 0 0 0 
:bonedata
  begin
     id 1 
     name lhipjoint
     direction 0.537252 -0.787203 0.302774 
     length 2.29576 
     axis 0 0 0  XYZ
  end
  begin
     id 2 
     name lfemur
     direction 0.34202 -0.939693 0  
     length 7.31114  
     axis 0 0 20  XYZ
    dof rx ry rz
    limits (-160.0 20.0)
           (-70.0 70.0)
           (-60.0 70.0)
  end
  begin
     id 3 
     name ltibia
     direction 0.34202 -0.939693 0   
     length 8.36008   
     axis 0 0 20   XYZ
    dof rx
    limits (-10.0 170.0)
  end
  begin
     id 4 
     name lfoot
     direction 0.0969116 -0.266263 0.959016   
     length 2.16704   
     axis -90 7.62852e-016 20   XYZ
    dof rx rz
    limits (-45.0 90.0)
           (-70.0 20.0)
  end
  begin
     id 5 
     name ltoes
     direction 1.53563e-011 -4.21779e-011 1   
     length 1.08338   
     axis -90 7.62852e-016 20   XYZ
    dof rx
    limits (-90.0 20.0)
  end
  begin
     id 6 
     name rhipjoint
     direction -0.588228 -0.754791 0.290308   
     length 2.39434  
     axis 0 0 0  XYZ 
  end
  begin
     id 7 
     name rfemur
     direction -0.34202 -0.939693 0   
     length 7.45207   
     axis 0 0 -20   XYZ
    dof rx ry rz
    limits (-160.0 20.0)
           (-70.0 70.0)
           (-70.0 60.0)
  end
  begin
     id 8 
     name rtibia
     direction -0.34202 -0.939693 0   
     length 8.03565   
     axis 0 0 -20   XYZ
    dof rx
    limits (-10.0 170.0)
 end
 begin
     id 9 
     name rfoot
     direction -0.107009 -0.294004 0.949795   
     length 2.11509  
     axis -90 -7.62852e-016 -20   XYZ
    dof rx rz
    limits (-45.0 90.0)
           (-20.0 70.0)
  end
  begin
     id 10 
     name rtoes
     direction -1.53533e-011 -4.22004e-011 1   
     length 1.05493   
     axis -90 -7.62852e-016 -20   XYZ
    dof rx
    limits (-90.0 20.0)
  end
  begin
     id 11 
     name lowerback
     direction -0.0115208 0.997969 -0.0626515   
     length 2.03153   
     axis 0 0 0   XYZ
    dof rx ry rz
    limits (-20.0 45.0)
           (-30.0 30.0)
           (-30.0 30.0)
  end
  begin
     id 12 
     name upperback
     direction -0.00423475 0.999974 -0.00583614   
     length 2.03619   
     axis 0 0 0   XYZ
    dof rx ry rz
    limits (-20.0 45.0)
           (-30.0 30.0)
           (-30.0 30.0)
  end
  begin
     id 13 
     name thorax
     direction 0.00289429 0.999728 0.0231573   
     length 2.03921   
     axis 0 0 0   XYZ
    dof rx ry rz
    limits (-20.0 45.0)
           (-30.0 30.0)
           (-30.0 30.0)
  end
  begin
     id 14 
     name lowerneck
     direction 0.0188995 0.987777 0.154721   
     length 1.78836   
     axis 0 0 0   XYZ
    dof rx ry rz
    limits (-20.0 45.0)
           (-30.0 30.0)
           (-30.0 30.0)
  end
  begin
     id 15 
     name upperneck
     direction -0.00612612 0.992995 -0.118   
     length 1.81789   
     axis 0 0 0   XYZ
    dof rx ry rz
    limits (-20.0 45.0)
           (-30.0 30.0)
           (-30.0 30.0)
  end
  begin
     id 16
     name head
     direction -0.00420226 0.998397 -0.0564482  
     length 1.82234  
     axis 0 0 0   XYZ
    dof rx ry rz
    limits (-20.0 45.0)
           (-30.0 30.0)
           (-30.0 30.0)
  end
  begin
     id 17 
     name lclavicle
     direction 0.916488 0.396539 0.0529676  
     length 3.51732  
     axis 0 0 0   XYZ
    dof ry rz
    limits (-20.0 10.0)
           (0.0 20.0)
  end
  begin
     id 18 
     name lhumerus
     direction 1 -4.4896e-011 8.36962e-028   
     length 5.45077   
     axis 180 -30 -90   XYZ
    dof rx ry rz
    limits (-60.0 90.0)
           (-90.0 90.0)
           (-90.0 90.0)
  end
  begin
     id 19
     name lradius
     direction 1 -4.48962e-011 3.01407e-027   
     length 3.05488   
     axis 180 -30 -90   XYZ
    dof rx
    limits (-10.0 170.0)
  end
  begin
     id 20
     name lwrist
     direction 1 -4.49002e-011 4.72961e-027   
     length 1.52744   
     axis -2.72261e-015 90 90   XYZ
    dof ry
    limits (-180.0 0.0)
 end
  begin
     id 21 
     name lhand
     direction 1 -4.4899e-011 9.45681e-027   
     length 0.638818   
     axis -6.0311e-015 90 90   XYZ
    dof rx rz
    limits (-90.0 90.0)
           (-45.0 45.0)
  end
  begin
     id 22 
     name lfingers
     direction 1 -4.48871e-011 1.88632e-026   
     length 0.515032   
     axis -1.20625e-014 90 90   XYZ
    dof rx
    limits (0.0 90.0)
  end
  begin
     id 23
     name lthumb
     direction 0.707107 -6.34964e-011 0.707107   
     length 0.739485   
     axis -90 45 6.32835e-014   XYZ
    dof rx rz
    limits (-45.0 45.0)
           (-45.0 45.0)
  end
  begin
     id 24 
     name rclavicle
     direction -0.949427 0.303202 0.0815894   
     length 3.76167  
     axis 0 0 0   XYZ 
    dof ry rz
    limits (-10.0 20.0)
           (-20.0 0.0)
  end
  begin
     id 25 
     name rhumerus
     direction -1 -4.48971e-011 -6.43969e-018  
     length 4.88702   
     axis 180 30 90   XYZ
    dof rx ry rz
    limits (-90.0 60.0)
           (-90.0 90.0)
           (-90.0 90.0)
  end
  begin
     id 26 
     name rradius
     direction -1 -4.48987e-011 5.46662e-027   
     length 3.22603   
     axis 180 30 90   XYZ
    dof rx
    limits (-10.0 170.0)
  end
  begin
     id 27 
     name rwrist
     direction -1 -4.48956e-011 4.72476e-027   
     length 1.61302   
     axis -2.72261e-015 -90 -90   XYZ
    dof ry
    limits (-180.0 0.0)
  end
  begin
     id 28
     name rhand
     direction -1 -4.4889e-011 9.43571e-027   
     length 0.716293   
     axis -6.0311e-015 -90 -90   XYZ
    dof rx rz
    limits (-90.0 90.0)
           (-45.0 45.0)
  end
  begin
     id 29
     name rfingers
     direction -1 -4.48887e-011 1.88701e-026   
     length 0.577494   
     axis -1.20625e-014 -90 -90   XYZ
    dof rx
    limits (0.0 90.0)
  end
  begin
     id 30
     name rthumb
     direction -0.707107 -6.34825e-011 0.707107   
     length 0.829169   
     axis -90 -45 -6.32835e-014   XYZ
    dof rx rz
    limits (-45.0 45.0)
           (-45.0 45.0)
  end
:hierarchy
  begin
    root lhipjoint rhipjoint lowerback
    lhipjoint lfemur
    lfemur ltibia
    ltibia lfoot
    lfoot ltoes
    rhipjoint rfemur
    rfemur rtibia
    rtibia rfoot
    rfoot rtoes
    lowerback upperback
    upperback thorax
    thorax lowerneck lclavicle rclavicle
    lowerneck upperneck
    upperneck head
    lclavicle lhumerus
    lhumerus lradius
    lradius lwrist
    lwrist lhand lthumb
    lhand lfingers
    rclavicle rhumerus
    rhumerus rradius
    rradius rwrist
    rwrist rhand rthumb
    rhand rfingers
  end

#!OML:ASF F:\VICON\USERDATA\INSTALL\rory3\rory3.ASF
:FULLY-SPECIFIED
:DEGREES
121
root -0.701014 18.342 0.623808 153.194 87.162 118.931
lowerback 18.6489 -0.942102 -1.04467
upperback 5.59948 -1.1237 -0.739213
thorax -4.40784 -0.407611 0.0443027
lowerneck -16.6641 -0.222982 2.13879
upperneck 24.9944 -0.171523 -1.42875
head 10.8026 0.0614155 -0.879547
rclavicle -1.49089e-014 -2.31087e-014
rhumerus 20.2749 -6.66986 -79.6522
rradius 60.2239
rwrist -195.768
rhand -24.7808 -6.38003
rfingers 7.12502
rthumb 1.72329 -36.3528
lclavicle -1.49089e-014 -2.31087e-014
lhumerus 18.1915 7.89673 68.4963
lradius 57.3121
lwrist 215.038
lhand -30.1548 -33.1307
lfingers 7.12502
lthumb -3.46694 -3.17918
rfemur -46.7399 -5.87977 16.5835
rtibia 15.1352
rfoot -2.83115 1.07361
rtoes -3.13397
lfemur -50.2486 11.3844 -27.1333
ltibia 19.4876
lfoot -3.51752 -2.09005
ltoes -23.1764
122
root -0.728411 18.3275 0.628602 153.801 87.1977 118.869
lowerback 18.931 -0.901878 -1.03113
upperback 5.72622 -1.05954 -0.75298
thorax -4.42118 -0.371472 0.0100182
lowerneck -16.7673 -0.272264 2.12957
upperneck 24.66 -0.287192 -1.33359
head 10.6971 0.0117534 -0.858966
rclavicle -2.48481e-016 -1.04362e-015
rhumerus 21.1613 -7.06225 -79.8872
rradius 59.8564
rwrist -195.936
rhand -24.4856 -6.51779
rfingers 7.12502
rthumb 2.00837 -36.4881
lclavicle -2.48481e-016 -1.04362e-015
lhumerus 19.2408 7.82533 68.4408
lradius 56.7852
lwrist 215.373
lhand -30.2181 -33.3034
lfingers 7.12502
lthumb -3.52806 -3.35289
rfemur -47.7211 -5.86152 16.688
rtibia 15.3711
rfoot -2.739 1.02913
rtoes -3.28362
lfemur -51.1503 11.3373 -27.2819
ltibia 19.5676
lfoot -3.39275 -2.11764
ltoes -22.9477
123
root -0.761943 18.3085 0.633627 154.724 87.107 118.818
lowerback 18.9137 -0.897316 -1.03006
upperback 5.7387 -1.05394 -0.782907
thorax -4.39945 -0.368585 -0.0238765
lowerneck -16.7654 -0.31693 2.19227
upperneck 24.2823 -0.393068 -1.31041
head 10.5557 -0.0353648 -0.874204
rclavicle 4.52235e-015 1.21756e-014
rhumerus 21.9136 -7.28806 -80.0399
rradius 59.426
rwrist -196.569
rhand -24.7858 -6.86665
rfingers 7.12502
rthumb 1.71845 -36.8395
lclavicle 4.52235e-015 1.21756e-014
lhumerus 20.2162 7.75307 68.4267
lradius 56.2373
lwrist 215.67
lhand -30.3458 -33.2952
lfingers 7.12502
lthumb -3.65139 -3.34677
rfemur -49.0369 -5.99144 16.7803
rtibia 15.5662
rfoot -2.56447 0.999782
rtoes -3.19591
lfemur -52.5557 11.5311 -27.9201
ltibia 19.7097
lfoot -3.11559 -2.68337
ltoes -22.6339
124
root -0.787365 18.292 0.634624 152.971 87.124 116.329
lowerback 19.2067 -0.846248 -1.01718
upperback 5.76468 -0.989169 -0.882762
thorax -4.52733 -0.333607 -0.149158
lowerneck -16.7735 -0.383175 2.25408
upperneck 23.9124 -0.536035 -1.25526
head 10.4193 -0.095682 -0.882826
rclavicle -1.31198e-014 2.78299e-015
rhumerus 22.5899 -7.52373 -80.1988
rradius 59.1472
rwrist -196.824
rhand -25.5823 -6.80842
rfingers 7.12502
rthumb 0.949157 -36.7861
lclavicle -1.31198e-014 2.78299e-015
lhumerus 21.1551 7.60585 68.3908
lradius 55.7015
lwrist 215.948
lhand -30.4186 -33.3984
lfingers 7.12502
lthumb -3.72172 -3.4512
rfemur -50.1066 -5.99248 16.7639
rtibia 15.784
rfoot -2.44611 1.00323
rtoes -2.86009
lfemur -53.6307 11.653 -28.3865
ltibia 19.8681
lfoot -2.9403 -2.92685
ltoes -22.5225
125
root -0.811679 18.2796 0.633948 154.041 87.206 116.836
lowerback 19.7508 -0.816465 -0.793828
upperback 5.79452 -0.910763 -0.958584
thorax -4.78508 -0.290654 -0.370692
lowerneck -16.8247 -0.458008 2.29034
upperneck 23.6404 -0.693153 -1.14943
head 10.3276 -0.15734 -0.871657
rclavicle 1.09332e-014 1.81391e-015
rhumerus 23.2882 -7.91647 -80.4072
rradius 58.8688
rwrist -196.705
rhand -25.6603 -6.79975
rfingers 7.12502
rthumb 0.873826 -36.7777
lclavicle 1.09332e-014 1.81391e-015
lhumerus 22.0753 7.40917 68.34
lradius 55.1908
lwrist 216.167
lhand -30.4565 -33.4363
lfingers 7.12502
lthumb -3.75834 -3.4897
rfemur -51.001 -6.04181 16.9519
rtibia 16.0457
rfoot -2.3871 1.09852
rtoes -2.6085
lfemur -54.4501 11.6524 -28.519
ltibia 19.9796
lfoot -2.77164 -2.97276
ltoes -22.3482
126
root -0.841682 18.2632 0.636441 155.457 87.1572 117.605
lowerback 20.2486 -0.812031 -0.653529
upperback 5.81352 -0.878738 -1.02165
thorax -5.02721 -0.270968 -0.522386
lowerneck -16.8634 -0.515712 2.36656
upperneck 23.3451 -0.829202 -1.07342
head 10.2257 -0.210075 -0.874681
rclavicle 1.97542e-014 2.72087e-014
rhumerus 24.012 -8.28629 -80.6662
rradius 58.5388
rwrist -196.88
rhand -25.4389 -6.66664
rfingers 7.12502
rthumb 1.0877 -36.6436
lclavicle 1.97542e-014 2.72087e-014
lhumerus 22.9795 7.23287 68.3025
lradius 54.6995
lwrist 216.392
lhand -30.4652 -33.2487
lfingers 7.12502
lthumb -3.76666 -3.30219
rfemur -51.991 -6.17325 17.0762
rtibia 16.3016
rfoot -2.31532 1.15157
rtoes -2.37331
lfemur -55.3831 11.6213 -28.8244
ltibia 20.0474
lfoot -2.55102 -3.1367
ltoes -22.1822
127
root -0.872453 18.2449 0.641956 155.757 86.9677 117.266
lowerback 20.7507 -0.839268 -0.685619
upperback 5.89328 -0.913118 -1.06123
thorax -5.20204 -0.280999 -0.535654
lowerneck -16.9951 -0.538769 2.45372
upperneck 22.9327 -0.896988 -1.12255
head 10.1002 -0.249148 -0.914409
rclavicle -4.47266e-015 7.19352e-015
rhumerus 24.7975 -8.43104 -80.8472
rradius 58.1976
rwrist -197.62
rhand -25.5092 -6.32587
rfingers 7.12502
rthumb 1.01974 -36.3032
lclavicle -4.47266e-015 7.19352e-015
lhumerus 24.0132 7.22148 68.3553
lradius 54.1359
lwrist 216.554
lhand -30.5638 -32.9015
lfingers 7.12502
lthumb -3.86187 -2.95679
rfemur -52.9361 -6.28596 16.9826
rtibia 16.5484
rfoot -2.26304 1.0357
rtoes -2.425
lfemur -56.3464 11.6216 -29.3772
ltibia 20.1341
lfoot -2.30045 -3.50462
ltoes -22.0804
